<svg xmlns="http://www.w3.org/2000/svg" height="24" viewBox="0 -960 960 960" width="24"><path d="M287-441q2-5-1.5-2T255-400q-27 40-86 132.5T283-485q-23 4-45 7.5t-44 8.5q-14 3-27.5-4T148-494q-23-66-47-133T54-760q-6-18 .5-36T78-823q91-48 193-72.5T482-920q105 0 205.5 25T882-822q17 9 23 26.5t0 35.5q-23 66-46.5 133T812-494q-5 14-18 21.5t-28 3.5q-14-3-26.5-5.5T713-479q4 17 2 32t-9 30l-10 23q-5 11-17 15t-23-1q-11-5-15.5-17t.5-23l10-21q5-11 3.5-22t-9.5-27q-30-4-60-6t-61-3q9 23 9 43t-9 39l-11 23q-5 11-17 15t-23-1q-11-5-15-17t1-23l9-21q6-13 3.5-26T457-500q-29 1-57 2.5t-56 4.5q7 21 6.5 39.5T342-417l-10 23q-5 11-17 15t-23-1q-11-5-15.5-17t.5-23l10-21Zm-26-189 4-10h-18q-6 0-9-5t0-10l53-90q3-5 8.5-5t8.5 5l50 91q3 5 .5 9.5T350-640h-20l-13 30q-5 10-6.5 20.5t.5 21.5q31-4 60.5-6t58.5-4q1-13 4-25.5t9-26.5l4-10h-19q-6 0-8.5-5t.5-10l52-90q3-5 9-5t9 5l50 91q3 5 0 9.5t-9 4.5h-19l-14 30q-3 8-5 15t-2 15q30 0 60.5 2t61.5 5q0-14 2.5-28t9.5-29l5-10h-19q-6 0-9-5t0-10l53-90q3-5 9-5t9 5l50 91q3 5 0 9.5t-9 4.5h-19l-14 30q-5 11-6 22.5t1 22.5q18 3 36 5.5t37 6.5l75-211q-75-38-161.5-57T482-840q-96 0-182.5 19T138-764l75 211q9-2 18-3t18-3q-2-17 1-34.5t11-36.5ZM236-80q-5 0-8-2.5t-5-6.5l-65-169h-2l2 44v115q0 8-5.5 13.5T139-80q-8 0-13.5-5.5T120-99v-197q0-10 7-17t17-7h11q8 0 14 4t8 11l63 167h2l63-166q3-8 9.5-12t14.5-4h8q11 0 18 7t7 18v196q0 8-5 13.5T344-80q-8 0-13.5-5.5T325-99v-115l2-44h-2L260-89q-2 4-5 6.5t-8 2.5h-11Zm498-93-53 84q-2 4-6.5 6.5T665-80q-11 0-17-10t0-20l61-95-55-86q-6-10-.5-19.5T670-320q5 0 9 2t7 7l48 77h2l47-77q2-4 6.5-6.5t9.5-2.5q11 0 16.5 10t-.5 20l-55 85 61 96q6 10 .5 19.5T805-80q-5 0-9.5-2t-7.5-7l-52-84h-2Zm-277 32-17 49q-2 5-6.5 8.5T423-80q-10 0-16-8.5t-2-17.5l75-201q2-6 7.5-9.5T499-320h15q6 0 11.5 3.5t7.5 9.5l75 201q4 10-1.5 18T590-80q-7 0-12-3.5t-7-9.5l-17-48h-97Zm13-35h71l-34-100h-2l-35 100Z"/></svg>